<svg width="20" height="17" viewBox="0 0 20 17" fill="none" xmlns="http://www.w3.org/2000/svg">
<path d="M10.1075 0.758753C10.5763 0.290075 11.2121 0.0267868 11.875 0.0267868C12.5379 0.0267868 13.1737 0.290075 13.6425 0.758753L18.4912 5.6075C18.9599 6.07632 19.2232 6.71209 19.2232 7.375C19.2232 8.03791 18.9599 8.67368 18.4912 9.1425L11.6162 16.0175C11.1475 16.4864 10.5117 16.7499 9.84875 16.75H6.4C5.73701 16.7499 5.10123 16.4864 4.6325 16.0175L1.5075 12.8925C1.03882 12.4237 0.775532 11.7879 0.775532 11.125C0.775532 10.4621 1.03882 9.82632 1.5075 9.3575L10.1062 0.758753H10.1075ZM12.7587 1.6425C12.5243 1.40816 12.2065 1.27652 11.875 1.27652C11.5435 1.27652 11.2257 1.40816 10.9912 1.6425L5.2 7.43375L11.8162 14.05L17.6075 8.25875C17.8418 8.02434 17.9735 7.70646 17.9735 7.375C17.9735 7.04355 17.8418 6.72566 17.6075 6.49125L12.7587 1.6425ZM10.9325 14.9338L4.31625 8.3175L2.3925 10.2413C2.15816 10.4757 2.02652 10.7935 2.02652 11.125C2.02652 11.4565 2.15816 11.7743 2.3925 12.0088L5.5175 15.1338C5.75186 15.3682 6.06975 15.4999 6.40125 15.5H9.85C10.1815 15.4999 10.4994 15.3682 10.7337 15.1338L10.9337 14.9338H10.9325Z" fill="#F7FCFF"/>
</svg>
