<svg width="20" height="16" viewBox="0 0 20 16" fill="none" xmlns="http://www.w3.org/2000/svg">
<path d="M15.7072 4.29289C16.0977 4.68342 16.0977 5.31658 15.7072 5.70711L13.4143 8L15.7072 10.2929C16.0977 10.6834 16.0977 11.3166 15.7072 11.7071C15.3166 12.0976 14.6835 12.0976 14.293 11.7071L12.0001 9.41421L9.70717 11.7071C9.31664 12.0976 8.68348 12.0976 8.29295 11.7071C7.90243 11.3166 7.90243 10.6834 8.29295 10.2929L10.5858 8L8.29295 5.70711C7.90243 5.31658 7.90243 4.68342 8.29295 4.29289C8.68348 3.90237 9.31664 3.90237 9.70717 4.29289L12.0001 6.58579L14.293 4.29289C14.6835 3.90237 15.3166 3.90237 15.7072 4.29289Z" fill="#F7FCFF"/>
<path  d="M20.0001 1C20.0001 0.447715 19.5523 0 19.0001 0H7.46C6.87615 0 6.32145 0.255125 5.94148 0.698417L0.798626 6.69842C0.156643 7.4474 0.156643 8.5526 0.798626 9.30158L5.94148 15.3016C6.32145 15.7449 6.87615 16 7.46 16H19.0001C19.5523 16 20.0001 15.5523 20.0001 15V1ZM18.0001 14H7.46L2.31714 8L7.46 2H18.0001V14Z" fill="#F7FCFF"/>
</svg>
