<svg width="10" height="5" viewBox="0 0 10 5" fill="none" xmlns="http://www.w3.org/2000/svg">
<path d="M0 0.625C0 0.45924 0.0658481 0.300269 0.183058 0.183058C0.300269 0.0658481 0.45924 0 0.625 0H9.375C9.54076 0 9.69973 0.0658481 9.81694 0.183058C9.93415 0.300269 10 0.45924 10 0.625C10 0.79076 9.93415 0.949732 9.81694 1.06694C9.69973 1.18415 9.54076 1.25 9.375 1.25H0.625C0.45924 1.25 0.300269 1.18415 0.183058 1.06694C0.0658481 0.949732 0 0.79076 0 0.625Z" fill="#F7FCFF"/>
<path d="M0 4.25C0 4.08424 0.0658481 3.92527 0.183058 3.80806C0.300269 3.69085 0.45924 3.625 0.625 3.625H9.375C9.54076 3.625 9.69973 3.69085 9.81694 3.80806C9.93415 3.92527 10 4.08424 10 4.25C10 4.41576 9.93415 4.57473 9.81694 4.69194C9.69973 4.80915 9.54076 4.875 9.375 4.875H0.625C0.45924 4.875 0.300269 4.80915 0.183058 4.69194C0.0658481 4.57473 0 4.41576 0 4.25Z" fill="#F7FCFF"/>
</svg>
