<svg width="10" height="10" viewBox="0 0 10 10" fill="none" xmlns="http://www.w3.org/2000/svg">
<path d="M0.807499 0.807503C0.865556 0.749299 0.934526 0.70312 1.01046 0.671612C1.08639 0.640104 1.16779 0.623886 1.25 0.623886C1.33221 0.623886 1.41361 0.640104 1.48954 0.671612C1.56547 0.70312 1.63444 0.749299 1.6925 0.807503L5 4.11625L8.3075 0.807503C8.36561 0.749393 8.4346 0.703298 8.51052 0.671849C8.58644 0.6404 8.66782 0.624213 8.75 0.624213C8.83218 0.624213 8.91355 0.6404 8.98948 0.671849C9.0654 0.703298 9.13439 0.749393 9.1925 0.807503C9.25061 0.865613 9.2967 0.934599 9.32815 1.01052C9.3596 1.08645 9.37579 1.16782 9.37579 1.25C9.37579 1.33218 9.3596 1.41356 9.32815 1.48948C9.2967 1.56541 9.25061 1.63439 9.1925 1.6925L5.88375 5L9.1925 8.3075C9.25061 8.36561 9.2967 8.4346 9.32815 8.51052C9.3596 8.58645 9.37579 8.66782 9.37579 8.75C9.37579 8.83218 9.3596 8.91356 9.32815 8.98948C9.2967 9.06541 9.25061 9.13439 9.1925 9.1925C9.13439 9.25061 9.0654 9.29671 8.98948 9.32816C8.91355 9.35961 8.83218 9.37579 8.75 9.37579C8.66782 9.37579 8.58644 9.35961 8.51052 9.32816C8.4346 9.29671 8.36561 9.25061 8.3075 9.1925L5 5.88375L1.6925 9.1925C1.63439 9.25061 1.5654 9.29671 1.48948 9.32816C1.41355 9.35961 1.33218 9.37579 1.25 9.37579C1.16782 9.37579 1.08644 9.35961 1.01052 9.32816C0.934595 9.29671 0.865609 9.25061 0.807499 9.1925C0.749389 9.13439 0.703294 9.06541 0.671845 8.98948C0.640396 8.91356 0.62421 8.83218 0.62421 8.75C0.62421 8.66782 0.640396 8.58645 0.671845 8.51052C0.703294 8.4346 0.749389 8.36561 0.807499 8.3075L4.11625 5L0.807499 1.6925C0.749295 1.63445 0.703116 1.56548 0.671608 1.48955C0.6401 1.41361 0.623882 1.33221 0.623882 1.25C0.623882 1.16779 0.6401 1.08639 0.671608 1.01046C0.703116 0.93453 0.749295 0.86556 0.807499 0.807503Z" fill="#F7FCFF"/>
</svg>
