<svg width="14" height="16" viewBox="0 0 12 16" fill="none" xmlns="http://www.w3.org/2000/svg">
<path d="M11.8469 10.2637C11.7362 11.7936 11.1698 12.998 10.1477 13.877C9.13208 14.7559 7.79093 15.1953 6.12427 15.1953C4.30135 15.1953 2.8658 14.5833 1.81763 13.3594C0.775958 12.1289 0.255125 10.4427 0.255125 8.30078V7.43164C0.255125 6.06445 0.49601 4.86003 0.977781 3.81836C1.45955 2.77669 2.1464 1.97917 3.03833 1.42578C3.93677 0.865885 4.97843 0.585938 6.16333 0.585938C7.80395 0.585938 9.12557 1.02539 10.1282 1.9043C11.1308 2.7832 11.7102 4.01693 11.8665 5.60547H8.93677C8.86515 4.6875 8.60799 4.02344 8.16528 3.61328C7.72908 3.19661 7.06177 2.98828 6.16333 2.98828C5.18677 2.98828 4.45434 3.33984 3.96606 4.04297C3.48429 4.73958 3.2369 5.82357 3.22388 7.29492V8.36914C3.22388 9.9056 3.45499 11.0286 3.91723 11.7383C4.38598 12.4479 5.12166 12.8027 6.12427 12.8027C7.02921 12.8027 7.70304 12.5977 8.14575 12.1875C8.59497 11.7708 8.85213 11.1296 8.91723 10.2637H11.8469Z" fill="#F7FCFF"/>
</svg>
