<svg width="10" height="8" viewBox="0 0 10 8" fill="none" xmlns="http://www.w3.org/2000/svg">
<path d="M0 4C0 3.83424 0.0658481 3.67527 0.183058 3.55806C0.300269 3.44085 0.45924 3.375 0.625 3.375H9.375C9.54076 3.375 9.69973 3.44085 9.81694 3.55806C9.93415 3.67527 10 3.83424 10 4C10 4.16576 9.93415 4.32473 9.81694 4.44194C9.69973 4.55915 9.54076 4.625 9.375 4.625H0.625C0.45924 4.625 0.300269 4.55915 0.183058 4.44194C0.0658481 4.32473 0 4.16576 0 4Z" fill="#F7FCFF"/>
<circle cx="5" cy="1" r="1" fill="#F7FCFF"/>
<circle cx="5" cy="7" r="1" fill="#F7FCFF"/>
</svg>
