<svg width="20" height="20" viewBox="0 0 20 20" fill="none" xmlns="http://www.w3.org/2000/svg">
<path d="M16.8025 3.1975C16.8751 3.27005 16.9326 3.35618 16.9719 3.45098C17.0112 3.54578 17.0314 3.64739 17.0314 3.75C17.0314 3.85261 17.0112 3.95422 16.9719 4.04902C16.9326 4.14382 16.8751 4.22995 16.8025 4.3025L4.3025 16.8025C4.22994 16.8751 4.14381 16.9326 4.04901 16.9719C3.95421 17.0111 3.85261 17.0314 3.75 17.0314C3.64739 17.0314 3.54579 17.0111 3.45099 16.9719C3.35619 16.9326 3.27006 16.8751 3.1975 16.8025C3.12494 16.7299 3.06739 16.6438 3.02812 16.549C2.98886 16.4542 2.96865 16.3526 2.96865 16.25C2.96865 16.1474 2.98886 16.0458 3.02812 15.951C3.06739 15.8562 3.12494 15.7701 3.1975 15.6975L15.6975 3.1975C15.77 3.12493 15.8562 3.06737 15.951 3.02809C16.0458 2.98882 16.1474 2.9686 16.25 2.9686C16.3526 2.9686 16.4542 2.98882 16.549 3.02809C16.6438 3.06737 16.73 3.12493 16.8025 3.1975ZM5.625 7.5C5.12772 7.5 4.65081 7.30246 4.29917 6.95083C3.94754 6.59919 3.75 6.12228 3.75 5.625C3.75 5.12772 3.94754 4.65081 4.29917 4.29917C4.65081 3.94754 5.12772 3.75 5.625 3.75C6.12228 3.75 6.59919 3.94754 6.95083 4.29917C7.30246 4.65081 7.5 5.12772 7.5 5.625C7.5 6.12228 7.30246 6.59919 6.95083 6.95083C6.59919 7.30246 6.12228 7.5 5.625 7.5ZM5.625 8.75C6.4538 8.75 7.24866 8.42076 7.83471 7.83471C8.42076 7.24866 8.75 6.4538 8.75 5.625C8.75 4.7962 8.42076 4.00134 7.83471 3.41529C7.24866 2.82924 6.4538 2.5 5.625 2.5C4.7962 2.5 4.00134 2.82924 3.41529 3.41529C2.82924 4.00134 2.5 4.7962 2.5 5.625C2.5 6.4538 2.82924 7.24866 3.41529 7.83471C4.00134 8.42076 4.7962 8.75 5.625 8.75ZM14.375 16.25C13.8777 16.25 13.4008 16.0525 13.0492 15.7008C12.6975 15.3492 12.5 14.8723 12.5 14.375C12.5 13.8777 12.6975 13.4008 13.0492 13.0492C13.4008 12.6975 13.8777 12.5 14.375 12.5C14.8723 12.5 15.3492 12.6975 15.7008 13.0492C16.0525 13.4008 16.25 13.8777 16.25 14.375C16.25 14.8723 16.0525 15.3492 15.7008 15.7008C15.3492 16.0525 14.8723 16.25 14.375 16.25ZM14.375 17.5C15.2038 17.5 15.9987 17.1708 16.5847 16.5847C17.1708 15.9987 17.5 15.2038 17.5 14.375C17.5 13.5462 17.1708 12.7513 16.5847 12.1653C15.9987 11.5792 15.2038 11.25 14.375 11.25C13.5462 11.25 12.7513 11.5792 12.1653 12.1653C11.5792 12.7513 11.25 13.5462 11.25 14.375C11.25 15.2038 11.5792 15.9987 12.1653 16.5847C12.7513 17.1708 13.5462 17.5 14.375 17.5Z" fill="#F7FCFF"/>
</svg>
